# File created by Blade
# Date/Time:  Wed Jan 21 16:27:40 2015
# Frame Rate: 120.000 fps
#------------------------------------------------------
:FULLY-SPECIFIED
:DEGREES
976
root 17.744686 8.149790 -20.972379 -183.054616 32.895468 -201.770134
Spine 41.495874 -18.645673 -12.222911
Head 11.804470 -23.094684 4.913148
LeftShoulder 11.484163 -32.153853 -0.351112
LeftArm 46.819910 65.841717 -42.403822
LeftForeArm 32.976402 -0.000000 8.298878
LeftHand 9.494793 -0.000000 55.517336
LeftHandThumb1 -26.253704 0.000000 33.147579
RightShoulder -5.039473 -12.727886 13.827928
RightArm 25.021918 -13.151320 62.202091
RightForeArm -33.536873 -0.000000 34.167852
RightHand 0.664852 0.000000 -21.202770
RightHandThumb1 -24.326973 -0.000000 -32.862282
LeftUpLeg 16.962986 -7.354037 37.288016
LeftLeg 40.582092 -0.000000 -0.000000
LeftFoot 5.278635 52.081985 1.089535
LeftToeBase 21.515377 -0.000000 -0.000000
RightUpLeg -101.394901 -39.475992 5.803782
RightLeg -4.310117 -0.000000 0.000000
RightFoot 25.052844 -41.127527 -9.454201
RightToeBase 25.372909 -0.000000 -0.000000
977
root 17.744139 8.149455 -20.967099 -183.089807 32.878174 -201.772800
Spine 41.514331 -18.609309 -12.204864
Head 11.819968 -23.076202 4.853534
LeftShoulder 11.471106 -32.112439 -0.338491
LeftArm 47.077925 65.826228 -42.150757
LeftForeArm 32.980382 -0.000000 8.366618
LeftHand 9.408340 -0.000000 55.317665
LeftHandThumb1 -26.253704 0.000000 33.147579
RightShoulder -5.040325 -12.718985 13.851293
RightArm 25.001932 -13.241439 62.143292
RightForeArm -33.618384 -0.000000 34.171348
RightHand 0.476637 -0.000000 -21.493661
RightHandThumb1 -24.326973 -0.000000 -32.862282
LeftUpLeg 16.962091 -7.381088 37.291884
LeftLeg 40.595567 -0.000000 -0.000000
LeftFoot 5.247286 52.023730 1.084067
LeftToeBase 21.540402 -0.000000 -0.000000
RightUpLeg -101.370219 -39.482976 5.799515
RightLeg -4.309336 -0.000000 0.000000
RightFoot 25.020509 -41.169497 -9.422650
RightToeBase 25.439904 -0.000000 -0.000000
978
root 17.742158 8.149164 -20.961039 -183.122087 32.857910 -201.779154
Spine 41.527682 -18.575442 -12.186396
Head 11.832258 -23.064049 4.795181
LeftShoulder 11.467436 -32.079400 -0.322126
LeftArm 47.300849 65.814351 -41.926002
LeftForeArm 32.951508 -0.000000 8.452617
LeftHand 9.366987 -0.000000 55.075106
LeftHandThumb1 -26.253704 0.000000 33.147579
RightShoulder -5.050354 -12.739452 13.864491
RightArm 24.993113 -13.241136 62.123369
RightForeArm -33.583585 -0.000000 34.196444
RightHand 0.524737 -0.000000 -21.603035
RightHandThumb1 -24.326973 -0.000000 -32.862282
LeftUpLeg 16.948407 -7.409164 37.293442
LeftLeg 40.622708 -0.000000 -0.000000
LeftFoot 5.242923 52.054039 1.085882
LeftToeBase 21.511389 -0.000000 -0.000000
RightUpLeg -101.344850 -39.494991 5.780299
RightLeg -4.309547 -0.000000 0.000000
RightFoot 25.025051 -41.182503 -9.473695
RightToeBase 25.746703 -0.000000 -0.000000
979
root 17.740465 8.147670 -20.957582 -183.174459 32.835551 -201.790462
Spine 41.555100 -18.539571 -12.173053
Head 11.833266 -23.035475 4.747589
LeftShoulder 11.458592 -32.026249 -0.312646
LeftArm 47.616010 65.802185 -41.611796
LeftForeArm 32.941857 -0.000000 8.516550
LeftHand 9.325776 -0.000000 54.880826
LeftHandThumb1 -26.253704 0.000000 33.147579
RightShoulder -5.067752 -12.712948 13.862614
RightArm 24.929251 -13.248961 62.133308
RightForeArm -33.569836 -0.000000 34.263750
RightHand 0.533314 -0.000000 -21.642017
RightHandThumb1 -24.326973 -0.000000 -32.862282
LeftUpLeg 16.955082 -7.457066 37.279911
LeftLeg 40.659936 -0.000000 -0.000000
LeftFoot 5.293081 52.019326 1.173542
LeftToeBase 21.445285 -0.000000 -0.000000
RightUpLeg -101.316311 -39.507039 5.764855
RightLeg -4.301598 -0.000000 0.000000
RightFoot 25.012500 -41.187303 -9.495144
RightToeBase 25.909614 -0.000000 -0.000000
980
root 17.738723 8.146948 -20.953645 -183.234849 32.810914 -201.805551
Spine 41.588224 -18.508423 -12.167991
Head 11.854475 -23.008980 4.678479
LeftShoulder 11.449742 -31.985145 -0.308869
LeftArm 47.958436 65.809185 -41.247473
LeftForeArm 32.909271 -0.000000 8.602331
LeftHand 9.313445 -0.000000 54.624044
LeftHandThumb1 -26.253704 0.000000 33.147579
RightShoulder -5.077451 -12.724604 13.849650
RightArm 24.915530 -13.244052 62.154199
RightForeArm -33.531246 -0.000000 34.296426
RightHand 0.542950 0.000000 -21.705204
RightHandThumb1 -24.326973 -0.000000 -32.862282
LeftUpLeg 16.964620 -7.501333 37.269667
LeftLeg 40.659481 -0.000000 -0.000000
LeftFoot 5.146899 52.016687 1.017862
LeftToeBase 21.627830 -0.000000 -0.000000
RightUpLeg -101.275863 -39.526869 5.735794
RightLeg -4.289653 -0.000000 0.000000
RightFoot 24.974745 -41.137102 -9.552110
RightToeBase 26.160942 -0.000000 -0.000000
981
root 17.735981 8.146111 -20.948739 -183.281835 32.788602 -201.822865
Spine 41.599763 -18.466015 -12.151565
Head 11.864016 -23.008835 4.628517
LeftShoulder 11.481007 -31.992006 -0.318517
LeftArm 48.116800 65.833734 -41.063418
LeftForeArm 32.917965 0.000000 8.694982
LeftHand 9.253646 0.000000 54.434385
LeftHandThumb1 -26.253704 0.000000 33.147579
RightShoulder -5.104167 -12.752406 13.837611
RightArm 24.925813 -13.256525 62.160750
RightForeArm -33.533153 -0.000000 34.310851
RightHand 0.549355 -0.000000 -21.799458
RightHandThumb1 -24.326973 -0.000000 -32.862282
LeftUpLeg 16.960172 -7.540866 37.257650
LeftLeg 40.700574 -0.000000 -0.000000
LeftFoot 5.260217 52.013818 1.162547
LeftToeBase 21.502729 -0.000000 -0.000000
RightUpLeg -101.257553 -39.538966 5.714349
RightLeg -4.274786 -0.000000 0.000000
RightFoot 24.964493 -41.149112 -9.557006
RightToeBase 26.307622 -0.000000 -0.000000
982
root 17.733710 8.145433 -20.945124 -183.348639 32.762937 -201.842550
Spine 41.642196 -18.433448 -12.158750
Head 11.857208 -22.988653 4.602692
LeftShoulder 11.502276 -32.050735 -0.319368
LeftArm 48.207662 65.907943 -40.945123
LeftForeArm 32.748781 -0.000000 8.795457
LeftHand 9.275824 -0.000000 54.198280
LeftHandThumb1 -26.253704 0.000000 33.147579
RightShoulder -5.110983 -12.778654 13.810378
RightArm 24.897567 -13.195282 62.192688
RightForeArm -33.254188 0.000000 34.416509
RightHand 0.683836 -0.000000 -21.730941
RightHandThumb1 -24.326973 -0.000000 -32.862282
LeftUpLeg 16.973588 -7.591210 37.242255
LeftLeg 40.705320 -0.000000 -0.000000
LeftFoot 5.149055 52.048642 1.050307
LeftToeBase 21.586653 -0.000000 -0.000000
RightUpLeg -101.220279 -39.556573 5.690466
RightLeg -4.268635 -0.000000 0.000000
RightFoot 24.935252 -41.131540 -9.569687
RightToeBase 26.533013 -0.000000 -0.000000
983
root 17.731338 8.144573 -20.940101 -183.407136 32.739661 -201.867739
Spine 41.670180 -18.400081 -12.172906
Head 11.853046 -22.979375 4.585329
LeftShoulder 11.490303 -32.089833 -0.294173
LeftArm 48.302986 65.933885 -40.851454
LeftForeArm 32.744736 0.000000 8.877334
LeftHand 9.298485 -0.000000 53.893372
LeftHandThumb1 -26.253704 0.000000 33.147579
RightShoulder -5.112417 -12.798489 13.792149
RightArm 24.890400 -13.230799 62.182283
RightForeArm -33.190317 -0.000000 34.468084
RightHand 0.663786 0.000000 -21.798519
RightHandThumb1 -24.326973 -0.000000 -32.862282
LeftUpLeg 16.973331 -7.629762 37.225361
LeftLeg 40.726115 -0.000000 -0.000000
LeftFoot 5.137340 52.049360 1.053857
LeftToeBase 21.620075 -0.000000 -0.000000
RightUpLeg -101.196574 -39.571800 5.657325
RightLeg -4.243652 -0.000000 0.000000
RightFoot 24.933087 -41.098445 -9.637927
RightToeBase 26.690452 -0.000000 -0.000000
984
root 17.729133 8.143964 -20.934932 -183.460392 32.718760 -201.896352
Spine 41.694731 -18.369002 -12.184264
Head 11.842641 -22.986525 4.589775
LeftShoulder 11.441280 -32.101891 -0.250487
LeftArm 48.539915 65.961948 -40.636031
LeftForeArm 32.730977 -0.000000 8.975758
LeftHand 9.185676 -0.000000 53.574584
LeftHandThumb1 -26.253704 0.000000 33.147579
RightShoulder -5.161302 -12.865365 13.807844
RightArm 25.037319 -13.418622 62.054240
RightForeArm -33.369252 -0.000000 34.381536
RightHand 0.507628 -0.000000 -22.045710
RightHandThumb1 -24.326973 -0.000000 -32.862282
LeftUpLeg 16.965637 -7.642223 37.214107
LeftLeg 40.746659 -0.000000 -0.000000
LeftFoot 5.033360 52.004988 0.954947
LeftToeBase 21.676185 -0.000000 -0.000000
RightUpLeg -101.179360 -39.582978 5.632504
RightLeg -4.228141 -0.000000 0.000000
RightFoot 24.887514 -41.080882 -9.655663
RightToeBase 26.961536 -0.000000 -0.000000
985
root 17.726189 8.142576 -20.931550 -183.524036 32.664641 -201.943042
Spine 41.708474 -18.363605 -12.222560
Head 11.857044 -22.972710 4.579021
LeftShoulder 11.410426 -32.057989 -0.189155
LeftArm 48.692724 65.919620 -40.508329
LeftForeArm 32.764259 -0.000000 9.080160
LeftHand 9.122514 -0.000000 53.205160
LeftHandThumb1 -26.253704 0.000000 33.147579
RightShoulder -5.180030 -12.921972 13.807717
RightArm 25.100644 -13.437111 62.039678
RightForeArm -33.370549 -0.000000 34.311283
RightHand 0.512998 -0.000000 -22.344444
RightHandThumb1 -24.326973 -0.000000 -32.862282
LeftUpLeg 16.933477 -7.706293 37.170666
LeftLeg 40.804072 -0.000000 -0.000000
LeftFoot 5.055337 51.953502 0.995023
LeftToeBase 21.632222 -0.000000 -0.000000
RightUpLeg -101.164668 -39.633823 5.591123
RightLeg -4.218281 -0.000000 0.000000
RightFoot 24.831942 -41.105942 -9.616267
RightToeBase 27.022441 -0.000000 -0.000000
986
root 17.724241 8.142337 -20.925317 -183.573105 32.653578 -201.954170
Spine 41.735937 -18.330297 -12.230972
Head 11.849023 -22.967640 4.583802
LeftShoulder 11.350959 -32.012367 -0.123208
LeftArm 48.849730 65.848280 -40.377028
LeftForeArm 32.765614 -0.000000 9.199297
LeftHand 9.140094 0.000000 52.848308
LeftHandThumb1 -26.253704 0.000000 33.147579
RightShoulder -5.176870 -12.933251 13.790205
RightArm 25.113192 -13.541841 61.965271
RightForeArm -33.308220 -0.000000 34.363092
RightHand 0.528462 -0.000000 -22.195888
RightHandThumb1 -24.326973 -0.000000 -32.862282
LeftUpLeg 16.937454 -7.736210 37.172384
LeftLeg 40.816785 -0.000000 -0.000000
LeftFoot 5.052835 52.037389 0.968319
LeftToeBase 21.628960 -0.000000 -0.000000
RightUpLeg -101.165386 -39.625103 5.639535
RightLeg -4.243476 -0.000000 0.000000
RightFoot 24.833652 -41.112468 -9.622693
RightToeBase 27.122355 -0.000000 -0.000000
987
root 17.723126 8.142100 -20.920261 -183.613550 32.633131 -201.960149
Spine 41.742438 -18.305104 -12.225689
Head 11.869758 -22.975691 4.577897
LeftShoulder 11.308128 -31.937161 -0.090070
LeftArm 49.114723 65.794282 -40.123646
LeftForeArm 32.719860 -0.000000 9.311860
LeftHand 8.941779 0.000000 52.690214
LeftHandThumb1 -26.253704 0.000000 33.147579
RightShoulder -5.187879 -12.980190 13.795420
RightArm 25.163806 -13.694460 61.815046
RightForeArm -33.155804 -0.000000 34.419690
RightHand 0.456210 -0.000000 -22.221687
RightHandThumb1 -24.326973 -0.000000 -32.862282
LeftUpLeg 16.930852 -7.758420 37.174235
LeftLeg 40.848409 -0.000000 -0.000000
LeftFoot 5.008139 51.954441 0.952379
LeftToeBase 21.677095 -0.000000 -0.000000
RightUpLeg -101.128437 -39.641021 5.616729
RightLeg -4.241690 -0.000000 0.000000
RightFoot 24.818771 -41.170468 -9.634682
RightToeBase 27.247306 -0.000000 -0.000000
988
root 17.737504 8.191655 -20.968414 -184.898711 32.861354 -203.211665
Spine 42.363967 -17.336707 -13.677858
Head 11.950067 -23.230526 5.359042
LeftShoulder 11.512782 -31.760371 0.122535
LeftArm 49.835672 65.767678 -39.175819
LeftForeArm 32.644301 0.000000 9.447552
LeftHand 8.882726 -0.000000 52.475549
LeftHandThumb1 -26.253704 0.000000 33.147579
RightShoulder -5.334716 -12.984317 14.556925
RightArm 25.206514 -13.681478 61.551883
RightForeArm -33.036504 -0.000000 34.469578
RightHand 0.389771 -0.000000 -22.208756
RightHandThumb1 -24.326973 -0.000000 -32.862282
LeftUpLeg 18.663883 -9.128501 34.889395
LeftLeg 39.309382 -0.000000 -0.000000
LeftFoot 7.317496 52.934012 3.676197
LeftToeBase 22.561641 -0.000000 -0.000000
RightUpLeg -100.407316 -39.461675 4.071658
RightLeg -4.138903 -0.000000 0.000000
RightFoot 24.764252 -41.149573 -9.486244
RightToeBase 27.412799 -0.000000 -0.000000
